<svg width="16" height="26" viewBox="0 0 16 26" xmlns="http://www.w3.org/2000/svg"><g fill="none" fill-rule="evenodd"><path d="M14.825 21.748l-6.152 3.57a1.34 1.34 0 01-1.346 0l-6.152-3.57A1.36 1.36 0 01.5 20.572v-7.144c0-.484.257-.933.675-1.176l6.152-3.57a1.34 1.34 0 011.346 0l6.152 3.57c.418.243.675.692.675 1.176v7.144c0 .484-.257.933-.675 1.176z" stroke="#FFF"/><path d="M15.37 0a.63.63 0 01.63.63v8.373l-.792.808a2.614 2.614 0 00-.52-.39l-.322-.183.634-.645V1H1v7.594l.633.644-.32.183c-.192.11-.366.24-.52.39L0 9.003V.63A.63.63 0 01.63 0h14.74z" fill="#FFF" fill-rule="nonzero"/><path d="M12 0v7.886l-1-.572V0h1zM5 0v7.314l-1 .571V0h1z" fill="#FFF"/></g></svg>